# Blender 4.0.1
# www.blender.org
mtllib 3dplus.mtl
o Cube.002
v -0.346185 0.184534 -90.774673
v -0.346185 -0.184534 -90.774673
v 0.346177 0.184534 -90.774673
v 0.346177 -0.184534 -90.774673
v -0.346177 0.184534 90.774673
v -0.346177 -0.184534 90.774673
v 0.346185 0.184534 90.774673
v 0.346185 -0.184534 90.774673
v 90.774673 0.184534 -0.346181
v 90.774673 -0.184534 -0.346181
v 90.774673 0.184534 0.346181
v 90.774673 -0.184534 0.346181
v -90.774673 0.184534 -0.346181
v -90.774673 -0.184534 -0.346181
v -90.774673 0.184534 0.346181
v -90.774673 -0.184534 0.346181
v 0.184530 -90.774673 -0.346181
v -0.184538 -90.774673 -0.346181
v 0.184530 -90.774673 0.346181
v -0.184538 -90.774673 0.346181
v 0.184538 90.774673 -0.346181
v -0.184530 90.774673 -0.346181
v 0.184538 90.774673 0.346181
v -0.184530 90.774673 0.346181
vn -0.0000 1.0000 -0.0000
vn 1.0000 -0.0000 -0.0000
vn -0.0000 -0.0000 1.0000
vn -0.0000 -1.0000 -0.0000
vn -0.0000 -0.0000 -1.0000
vn -1.0000 -0.0000 -0.0000
vt 0.625000 0.500000
vt 0.875000 0.500000
vt 0.875000 0.750000
vt 0.625000 0.750000
vt 0.375000 0.750000
vt 0.625000 1.000000
vt 0.375000 1.000000
vt 0.375000 0.000000
vt 0.625000 0.000000
vt 0.625000 0.250000
vt 0.375000 0.250000
vt 0.125000 0.500000
vt 0.375000 0.500000
vt 0.125000 0.750000
s 0
usemtl Material
f 1/1/1 5/2/1 7/3/1 3/4/1
f 4/5/2 3/4/2 7/6/2 8/7/2
f 8/8/3 7/9/3 5/10/3 6/11/3
f 6/12/4 2/13/4 4/5/4 8/14/4
f 2/13/5 1/1/5 3/4/5 4/5/5
f 6/11/6 5/10/6 1/1/6 2/13/6
f 9/1/1 13/2/1 15/3/1 11/4/1
f 12/5/3 11/4/3 15/6/3 16/7/3
f 16/8/6 15/9/6 13/10/6 14/11/6
f 14/12/4 10/13/4 12/5/4 16/14/4
f 10/13/2 9/1/2 11/4/2 12/5/2
f 14/11/5 13/10/5 9/1/5 10/13/5
usemtl Material.001
f 17/1/2 21/2/2 23/3/2 19/4/2
f 20/5/3 19/4/3 23/6/3 24/7/3
f 24/8/1 23/9/1 21/10/1 22/11/1
f 22/12/6 18/13/6 20/5/6 24/14/6
f 18/13/4 17/1/4 19/4/4 20/5/4
f 22/11/5 21/10/5 17/1/5 18/13/5
