# Blender 4.0.1
# www.blender.org
mtllib axisPointer.mtl
o Cube
v 0.200000 0.200000 -0.200000
v 0.200000 -0.200000 -0.200000
v 0.200000 0.200000 0.200000
v 0.200000 -0.200000 0.200000
v -0.200000 0.200000 -0.200000
v -0.200000 -0.200000 -0.200000
v -0.200000 0.200000 0.200000
v -0.200000 -0.200000 0.200000
v 0.101280 2.082723 -0.101280
v -0.049398 2.082723 -0.101280
v -0.049398 2.082723 0.049398
v 0.101280 2.082723 0.049398
v 1.921259 -0.049398 -0.101280
v 1.921259 0.101280 -0.101280
v 1.921259 0.101280 0.049398
v 1.921259 -0.049398 0.049398
v -0.049398 -0.049398 -1.988562
v -0.049398 0.101280 -1.988562
v 0.101280 0.101280 -1.988562
v 0.101280 -0.049398 -1.988562
v 0.016911 1.638380 -0.362670
v 0.087664 1.638380 -0.355701
v 0.155699 1.638380 -0.335063
v 0.218399 1.638380 -0.301549
v 0.273357 1.638380 -0.256446
v 0.318460 1.638380 -0.201489
v 0.351974 1.638380 -0.138788
v 0.372612 1.638380 -0.070753
v 0.379581 1.638380 0.000000
v 0.372612 1.638380 0.070753
v 0.351974 1.638380 0.138788
v 0.318460 1.638380 0.201489
v 0.273357 1.638380 0.256446
v 0.218399 1.638380 0.301549
v 0.155699 1.638380 0.335063
v 0.087664 1.638380 0.355701
v 0.016911 1.638380 0.362670
v -0.053843 1.638380 0.355701
v -0.121877 1.638380 0.335063
v -0.184578 1.638380 0.301549
v -0.239536 1.638380 0.256446
v -0.284638 1.638380 0.201489
v -0.318152 1.638380 0.138788
v -0.338790 1.638380 0.070753
v -0.345759 1.638380 0.000000
v -0.338790 1.638380 -0.070753
v -0.318152 1.638380 -0.138788
v -0.284638 1.638380 -0.201489
v -0.239536 1.638380 -0.256446
v -0.184578 1.638380 -0.301549
v -0.121877 1.638380 -0.335063
v -0.053843 1.638380 -0.355701
v 0.016911 2.645010 0.000000
v 1.583892 0.000000 -0.370000
v 1.583892 -0.072183 -0.362891
v 1.583892 -0.141593 -0.341835
v 1.583892 -0.205561 -0.307644
v 1.583892 -0.261629 -0.261630
v 1.583892 -0.307644 -0.205561
v 1.583892 -0.341835 -0.141593
v 1.583892 -0.362891 -0.072183
v 1.583892 -0.370000 0.000000
v 1.583892 -0.362891 0.072183
v 1.583892 -0.341835 0.141593
v 1.583892 -0.307644 0.205561
v 1.583892 -0.261629 0.261630
v 1.583892 -0.205561 0.307644
v 1.583892 -0.141593 0.341835
v 1.583892 -0.072183 0.362891
v 1.583892 0.000000 0.370000
v 1.583892 0.072183 0.362891
v 1.583892 0.141593 0.341835
v 1.583892 0.205561 0.307644
v 1.583892 0.261630 0.261630
v 1.583892 0.307644 0.205561
v 1.583892 0.341835 0.141593
v 1.583892 0.362891 0.072183
v 1.583892 0.370000 0.000000
v 1.583892 0.362891 -0.072183
v 1.583892 0.341835 -0.141593
v 1.583892 0.307644 -0.205561
v 1.583892 0.261630 -0.261630
v 1.583892 0.205561 -0.307644
v 1.583892 0.141593 -0.341835
v 1.583892 0.072183 -0.362891
v 2.473264 -0.000000 0.000000
v 0.000000 -0.370000 -1.596286
v 0.072183 -0.362891 -1.596286
v 0.141593 -0.341835 -1.596286
v 0.205561 -0.307644 -1.596286
v 0.261630 -0.261629 -1.596286
v 0.307644 -0.205561 -1.596286
v 0.341835 -0.141593 -1.596286
v 0.362891 -0.072183 -1.596286
v 0.370000 0.000000 -1.596286
v 0.362891 0.072183 -1.596286
v 0.341835 0.141593 -1.596286
v 0.307644 0.205561 -1.596286
v 0.261630 0.261630 -1.596286
v 0.205561 0.307644 -1.596286
v 0.141593 0.341835 -1.596286
v 0.072183 0.362891 -1.596286
v 0.000000 0.370000 -1.596286
v -0.072183 0.362891 -1.596286
v -0.141593 0.341835 -1.596286
v -0.205561 0.307644 -1.596286
v -0.261630 0.261630 -1.596286
v -0.307644 0.205561 -1.596286
v -0.341835 0.141593 -1.596286
v -0.362891 0.072183 -1.596286
v -0.370000 0.000000 -1.596286
v -0.362891 -0.072183 -1.596286
v -0.341835 -0.141593 -1.596286
v -0.307644 -0.205561 -1.596286
v -0.261630 -0.261629 -1.596286
v -0.205561 -0.307644 -1.596286
v -0.141593 -0.341835 -1.596286
v -0.072183 -0.362891 -1.596286
v 0.000000 -0.000000 -2.565211
vn -0.0000 -0.0000 1.0000
vn -1.0000 -0.0000 -0.0000
vn -0.0000 -1.0000 -0.0000
vn -0.0000 0.0524 -0.9986
vn -0.9968 0.0797 -0.0000
vn -0.0000 0.0797 0.9968
vn 0.9986 0.0524 -0.0000
vn 0.0573 -0.0000 -0.9984
vn 0.0573 0.9984 -0.0000
vn 0.0872 -0.0000 0.9962
vn 0.0872 -0.9962 -0.0000
vn -0.9965 -0.0000 -0.0839
vn -0.0000 0.9985 -0.0551
vn 0.9985 -0.0000 -0.0551
vn -0.0000 -0.9965 -0.0839
vn 0.0923 0.3375 -0.9368
vn 0.2733 0.3375 -0.9008
vn 0.4437 0.3375 -0.8302
vn 0.5972 0.3375 -0.7277
vn 0.7277 0.3375 -0.5972
vn 0.8302 0.3375 -0.4437
vn 0.9008 0.3375 -0.2733
vn 0.9368 0.3375 -0.0923
vn 0.9368 0.3375 0.0923
vn 0.9008 0.3375 0.2733
vn 0.8302 0.3375 0.4437
vn 0.7277 0.3375 0.5972
vn 0.5972 0.3375 0.7277
vn 0.4437 0.3375 0.8302
vn 0.2733 0.3375 0.9008
vn 0.0923 0.3375 0.9368
vn -0.0923 0.3375 0.9368
vn -0.2733 0.3375 0.9008
vn -0.4437 0.3375 0.8302
vn -0.5972 0.3375 0.7277
vn -0.7277 0.3375 0.5972
vn -0.8302 0.3375 0.4437
vn -0.9008 0.3375 0.2733
vn -0.9368 0.3375 0.0923
vn -0.9368 0.3375 -0.0923
vn -0.9008 0.3375 -0.2733
vn -0.8302 0.3375 -0.4437
vn -0.7277 0.3375 -0.5972
vn -0.5972 0.3375 -0.7277
vn -0.4437 0.3375 -0.8302
vn -0.2733 0.3375 -0.9008
vn -0.0923 0.3375 -0.9368
vn 0.3825 -0.0906 -0.9195
vn 0.3825 -0.2682 -0.8842
vn 0.3825 -0.4355 -0.8148
vn 0.3825 -0.5861 -0.7142
vn 0.3825 -0.7142 -0.5861
vn 0.3825 -0.8148 -0.4355
vn 0.3825 -0.8842 -0.2682
vn 0.3825 -0.9195 -0.0906
vn 0.3825 -0.9195 0.0906
vn 0.3825 -0.8842 0.2682
vn 0.3825 -0.8148 0.4355
vn 0.3825 -0.7142 0.5861
vn 0.3825 -0.5861 0.7142
vn 0.3825 -0.4355 0.8148
vn 0.3825 -0.2682 0.8842
vn 0.3825 -0.0906 0.9195
vn 0.3825 0.0906 0.9195
vn 0.3825 0.2682 0.8842
vn 0.3825 0.4355 0.8148
vn 0.3825 0.5861 0.7142
vn 0.3825 0.7142 0.5861
vn 0.3825 0.8148 0.4355
vn 0.3825 0.8842 0.2682
vn 0.3825 0.9195 0.0906
vn 0.3825 0.9195 -0.0906
vn 0.3825 0.8842 -0.2682
vn 0.3825 0.8148 -0.4355
vn 0.3825 0.7142 -0.5861
vn 0.3825 0.5861 -0.7142
vn 0.3825 0.4355 -0.8148
vn 0.3825 0.2682 -0.8842
vn 0.3825 0.0906 -0.9195
vn 0.0916 -0.9303 -0.3552
vn 0.2714 -0.8945 -0.3552
vn 0.4406 -0.8244 -0.3552
vn 0.5930 -0.7226 -0.3552
vn 0.7226 -0.5930 -0.3552
vn 0.8244 -0.4406 -0.3552
vn 0.8945 -0.2714 -0.3552
vn 0.9303 -0.0916 -0.3552
vn 0.9303 0.0916 -0.3552
vn 0.8945 0.2714 -0.3552
vn 0.8244 0.4406 -0.3552
vn 0.7226 0.5930 -0.3552
vn 0.5930 0.7226 -0.3552
vn 0.4406 0.8244 -0.3552
vn 0.2714 0.8945 -0.3552
vn 0.0916 0.9303 -0.3552
vn -0.0916 0.9303 -0.3552
vn -0.2714 0.8945 -0.3552
vn -0.4406 0.8244 -0.3552
vn -0.5930 0.7226 -0.3552
vn -0.7226 0.5930 -0.3552
vn -0.8244 0.4406 -0.3552
vn -0.8945 0.2714 -0.3552
vn -0.9303 0.0916 -0.3552
vn -0.9303 -0.0916 -0.3552
vn -0.8945 -0.2714 -0.3552
vn -0.8244 -0.4406 -0.3552
vn -0.7226 -0.5930 -0.3552
vn -0.5930 -0.7226 -0.3552
vn -0.4406 -0.8244 -0.3552
vn -0.2714 -0.8945 -0.3552
vn -0.0916 -0.9303 -0.3552
vt 0.255492 0.815512
vt 0.164395 0.906609
vt 0.164395 0.815512
vt 0.255492 0.815512
vt 0.346588 0.724415
vt 0.346588 0.815512
vt 0.164395 0.724415
vt 0.255492 0.815512
vt 0.000000 0.026365
vt 0.145668 0.434238
vt 0.112117 0.441441
vt 0.089067 0.007241
vt 0.179875 0.431510
vt 0.270684 0.007241
vt 0.179875 0.000000
vt 0.359751 0.026365
vt 0.214082 0.434238
vt 0.718604 0.449431
vt 0.573364 0.818624
vt 0.629930 0.428562
vt 0.359751 0.449431
vt 0.504992 0.818624
vt 0.471589 0.826485
vt 0.448425 0.428562
vt 0.539178 0.815644
vt 0.539178 0.420651
vt 0.630157 0.007617
vt 0.539379 0.410209
vt 0.539379 0.000000
vt 0.719007 0.027722
vt 0.573575 0.413078
vt 0.359751 0.027722
vt 0.505184 0.413078
vt 0.471714 0.420651
vt 0.448601 0.007617
vt 0.085474 0.470099
vt 0.175667 0.579999
vt 0.065767 0.489806
vt 0.050283 0.512979
vt 0.039617 0.538728
vt 0.034180 0.566063
vt 0.034180 0.593934
vt 0.039617 0.621269
vt 0.050282 0.647018
vt 0.065767 0.670191
vt 0.085474 0.689899
vt 0.108647 0.705383
vt 0.134396 0.716048
vt 0.161731 0.721485
vt 0.189602 0.721485
vt 0.216937 0.716048
vt 0.242686 0.705383
vt 0.265859 0.689899
vt 0.285567 0.670191
vt 0.301051 0.647018
vt 0.311716 0.621269
vt 0.317153 0.593934
vt 0.317153 0.566063
vt 0.311716 0.538728
vt 0.301051 0.512979
vt 0.285567 0.489806
vt 0.265859 0.470099
vt 0.242686 0.454615
vt 0.216937 0.443949
vt 0.189602 0.438512
vt 0.161731 0.438512
vt 0.134396 0.443949
vt 0.000000 0.831720
vt 0.090293 0.757618
vt 0.164395 0.847911
vt 0.108647 0.454615
vt 0.767759 0.732316
vt 0.854190 0.837633
vt 0.748874 0.751202
vt 0.734036 0.773409
vt 0.723815 0.798084
vt 0.718604 0.824279
vt 0.718604 0.850987
vt 0.723815 0.877182
vt 0.734036 0.901857
vt 0.748874 0.924064
vt 0.767759 0.942950
vt 0.789966 0.957788
vt 0.814642 0.968009
vt 0.840836 0.973219
vt 0.867545 0.973219
vt 0.893740 0.968009
vt 0.918415 0.957788
vt 0.940622 0.942950
vt 0.959507 0.924064
vt 0.974345 0.901857
vt 0.984566 0.877182
vt 0.989777 0.850987
vt 0.989776 0.824279
vt 0.984566 0.798084
vt 0.974345 0.773409
vt 0.959507 0.751202
vt 0.940622 0.732316
vt 0.918415 0.717478
vt 0.893739 0.707257
vt 0.867545 0.702047
vt 0.840836 0.702047
vt 0.814641 0.707257
vt 0.856323 0.316714
vt 0.737729 0.305033
vt 0.749409 0.186439
vt 0.789966 0.717478
vt 0.743179 0.463847
vt 0.852466 0.553537
vt 0.727781 0.486891
vt 0.717175 0.512496
vt 0.711768 0.539679
vt 0.711768 0.567394
vt 0.717175 0.594576
vt 0.727781 0.620182
vt 0.743179 0.643226
vt 0.762777 0.662824
vt 0.785821 0.678221
vt 0.811426 0.688827
vt 0.838609 0.694234
vt 0.866324 0.694234
vt 0.893506 0.688827
vt 0.919112 0.678221
vt 0.942156 0.662824
vt 0.961753 0.643226
vt 0.977151 0.620182
vt 0.987757 0.594577
vt 0.993164 0.567394
vt 0.993164 0.539679
vt 0.987757 0.512497
vt 0.977151 0.486891
vt 0.961753 0.463847
vt 0.942156 0.444249
vt 0.919112 0.428852
vt 0.893506 0.418246
vt 0.866324 0.412839
vt 0.838609 0.412839
vt 0.811426 0.418246
vt 0.785821 0.428852
vt 0.877181 0.123581
vt 0.827327 0.164495
vt 0.722230 0.108319
vt 0.762777 0.444249
vt 0.255492 0.906609
vt 0.255492 0.724415
vt 0.247633 0.441441
vt 0.606767 0.826485
vt 0.607044 0.420651
vt 0.161236 0.863792
vt 0.155040 0.878751
vt 0.146044 0.892213
vt 0.134595 0.903663
vt 0.121133 0.912658
vt 0.106174 0.918854
vt 0.090293 0.922013
vt 0.074102 0.922013
vt 0.058221 0.918854
vt 0.043262 0.912658
vt 0.029800 0.903663
vt 0.018351 0.892213
vt 0.009355 0.878751
vt 0.003159 0.863792
vt 0.000000 0.847911
vt 0.003159 0.815840
vt 0.009355 0.800881
vt 0.018350 0.787418
vt 0.029800 0.775969
vt 0.043262 0.766973
vt 0.058221 0.760777
vt 0.074102 0.757618
vt 0.106173 0.760777
vt 0.121132 0.766973
vt 0.134595 0.775969
vt 0.146044 0.787418
vt 0.155040 0.800880
vt 0.161236 0.815839
vt 0.164395 0.831720
vt 0.842588 0.325891
vt 0.827327 0.332213
vt 0.811126 0.335435
vt 0.794607 0.335435
vt 0.778406 0.332213
vt 0.763144 0.325891
vt 0.749409 0.316714
vt 0.728552 0.291298
vt 0.722230 0.276037
vt 0.719007 0.259836
vt 0.719007 0.243317
vt 0.722230 0.227116
vt 0.728552 0.211854
vt 0.737729 0.198119
vt 0.763144 0.177262
vt 0.778406 0.170940
vt 0.794607 0.167718
vt 0.811126 0.167718
vt 0.827327 0.170940
vt 0.842588 0.177262
vt 0.856323 0.186439
vt 0.868004 0.198120
vt 0.877181 0.211854
vt 0.883502 0.227116
vt 0.886725 0.243317
vt 0.886725 0.259836
vt 0.883502 0.276037
vt 0.877181 0.291298
vt 0.868004 0.305033
vt 0.719007 0.092118
vt 0.719007 0.075599
vt 0.722230 0.059398
vt 0.728552 0.044137
vt 0.737729 0.030402
vt 0.749409 0.018721
vt 0.763144 0.009544
vt 0.778406 0.003223
vt 0.794607 0.000000
vt 0.811126 -0.000000
vt 0.827327 0.003223
vt 0.842588 0.009544
vt 0.856323 0.018721
vt 0.868004 0.030402
vt 0.877181 0.044137
vt 0.883502 0.059398
vt 0.886725 0.075599
vt 0.886725 0.092118
vt 0.883502 0.108319
vt 0.868004 0.137316
vt 0.856323 0.148996
vt 0.842588 0.158173
vt 0.811126 0.167718
vt 0.778406 0.164495
vt 0.763144 0.158173
vt 0.749409 0.148996
vt 0.737729 0.137316
vt 0.728552 0.123581
s 0
usemtl Material
f 3/1/1 8/2/1 4/3/1
f 7/4/2 6/5/2 8/6/2
f 2/7/3 8/8/3 6/3/3
f 1/9/4 10/10/4 9/11/4
f 5/12/5 11/13/5 10/10/5
f 3/14/6 11/13/6 7/15/6
f 1/16/7 12/17/7 3/14/7
f 1/18/8 13/19/8 2/20/8
f 1/21/9 15/22/9 14/23/9
f 3/24/10 16/25/10 15/22/10
f 2/20/11 16/25/11 4/26/11
f 5/27/12 17/28/12 6/29/12
f 1/30/13 18/31/13 5/27/13
f 1/32/14 20/33/14 19/34/14
f 2/35/15 17/28/15 20/33/15
f 21/36/16 53/37/16 22/38/16
f 22/38/17 53/37/17 23/39/17
f 23/39/18 53/37/18 24/40/18
f 24/40/19 53/37/19 25/41/19
f 25/41/20 53/37/20 26/42/20
f 26/42/21 53/37/21 27/43/21
f 27/43/22 53/37/22 28/44/22
f 28/44/23 53/37/23 29/45/23
f 29/45/24 53/37/24 30/46/24
f 30/46/25 53/37/25 31/47/25
f 31/47/26 53/37/26 32/48/26
f 32/48/27 53/37/27 33/49/27
f 33/49/28 53/37/28 34/50/28
f 34/50/29 53/37/29 35/51/29
f 35/51/30 53/37/30 36/52/30
f 36/52/31 53/37/31 37/53/31
f 37/53/32 53/37/32 38/54/32
f 38/54/33 53/37/33 39/55/33
f 39/55/34 53/37/34 40/56/34
f 40/56/35 53/37/35 41/57/35
f 41/57/36 53/37/36 42/58/36
f 42/58/37 53/37/37 43/59/37
f 43/59/38 53/37/38 44/60/38
f 44/60/39 53/37/39 45/61/39
f 45/61/40 53/37/40 46/62/40
f 46/62/41 53/37/41 47/63/41
f 47/63/42 53/37/42 48/64/42
f 48/64/43 53/37/43 49/65/43
f 49/65/44 53/37/44 50/66/44
f 50/66/45 53/37/45 51/67/45
f 36/68/3 44/69/3 52/70/3
f 51/67/46 53/37/46 52/71/46
f 52/71/47 53/37/47 21/36/47
f 54/72/48 86/73/48 55/74/48
f 55/74/49 86/73/49 56/75/49
f 56/75/50 86/73/50 57/76/50
f 57/76/51 86/73/51 58/77/51
f 58/77/52 86/73/52 59/78/52
f 59/78/53 86/73/53 60/79/53
f 60/79/54 86/73/54 61/80/54
f 61/80/55 86/73/55 62/81/55
f 62/81/56 86/73/56 63/82/56
f 63/82/57 86/73/57 64/83/57
f 64/83/58 86/73/58 65/84/58
f 65/84/59 86/73/59 66/85/59
f 66/85/60 86/73/60 67/86/60
f 67/86/61 86/73/61 68/87/61
f 68/87/62 86/73/62 69/88/62
f 69/88/63 86/73/63 70/89/63
f 70/89/64 86/73/64 71/90/64
f 71/90/65 86/73/65 72/91/65
f 72/91/66 86/73/66 73/92/66
f 73/92/67 86/73/67 74/93/67
f 74/93/68 86/73/68 75/94/68
f 75/94/69 86/73/69 76/95/69
f 76/95/70 86/73/70 77/96/70
f 77/96/71 86/73/71 78/97/71
f 78/97/72 86/73/72 79/98/72
f 79/98/73 86/73/73 80/99/73
f 80/99/74 86/73/74 81/100/74
f 81/100/75 86/73/75 82/101/75
f 82/101/76 86/73/76 83/102/76
f 83/102/77 86/73/77 84/103/77
f 85/104/2 61/105/2 69/106/2
f 84/103/78 86/73/78 85/107/78
f 85/107/79 86/73/79 54/72/79
f 87/108/80 119/109/80 88/110/80
f 88/110/81 119/109/81 89/111/81
f 89/111/82 119/109/82 90/112/82
f 90/112/83 119/109/83 91/113/83
f 91/113/84 119/109/84 92/114/84
f 92/114/85 119/109/85 93/115/85
f 93/115/86 119/109/86 94/116/86
f 94/116/87 119/109/87 95/117/87
f 95/117/88 119/109/88 96/118/88
f 96/118/89 119/109/89 97/119/89
f 97/119/90 119/109/90 98/120/90
f 98/120/91 119/109/91 99/121/91
f 99/121/92 119/109/92 100/122/92
f 100/122/93 119/109/93 101/123/93
f 101/123/94 119/109/94 102/124/94
f 102/124/95 119/109/95 103/125/95
f 103/125/96 119/109/96 104/126/96
f 104/126/97 119/109/97 105/127/97
f 105/127/98 119/109/98 106/128/98
f 106/128/99 119/109/99 107/129/99
f 107/129/100 119/109/100 108/130/100
f 108/130/101 119/109/101 109/131/101
f 109/131/102 119/109/102 110/132/102
f 110/132/103 119/109/103 111/133/103
f 111/133/104 119/109/104 112/134/104
f 112/134/105 119/109/105 113/135/105
f 113/135/106 119/109/106 114/136/106
f 114/136/107 119/109/107 115/137/107
f 115/137/108 119/109/108 116/138/108
f 116/138/109 119/109/109 117/139/109
f 106/140/1 110/141/1 118/142/1
f 117/139/110 119/109/110 118/143/110
f 118/143/111 119/109/111 87/108/111
f 3/1/1 7/144/1 8/2/1
f 7/4/2 5/145/2 6/5/2
f 2/7/3 4/145/3 8/8/3
f 1/9/4 5/12/4 10/10/4
f 5/12/5 7/15/5 11/13/5
f 3/14/6 12/17/6 11/13/6
f 1/16/7 9/146/7 12/17/7
f 1/18/8 14/147/8 13/19/8
f 1/21/9 3/24/9 15/22/9
f 3/24/10 4/26/10 16/25/10
f 2/20/11 13/19/11 16/25/11
f 5/27/12 18/31/12 17/28/12
f 1/30/13 19/148/13 18/31/13
f 1/32/14 2/35/14 20/33/14
f 2/35/15 6/29/15 17/28/15
f 52/70/3 21/149/3 22/150/3
f 22/150/3 23/151/3 24/152/3
f 24/152/3 25/153/3 26/154/3
f 26/154/3 27/155/3 24/152/3
f 27/155/3 28/156/3 24/152/3
f 28/156/3 29/157/3 30/158/3
f 30/158/3 31/159/3 32/160/3
f 32/160/3 33/161/3 34/162/3
f 34/162/3 35/163/3 36/68/3
f 36/68/3 37/164/3 38/165/3
f 38/165/3 39/166/3 40/167/3
f 40/167/3 41/168/3 42/169/3
f 42/169/3 43/170/3 44/69/3
f 44/69/3 45/171/3 46/172/3
f 46/172/3 47/173/3 48/174/3
f 48/174/3 49/175/3 50/176/3
f 50/176/3 51/177/3 52/70/3
f 52/70/3 22/150/3 28/156/3
f 22/150/3 24/152/3 28/156/3
f 28/156/3 30/158/3 32/160/3
f 32/160/3 34/162/3 36/68/3
f 36/68/3 38/165/3 44/69/3
f 38/165/3 40/167/3 44/69/3
f 40/167/3 42/169/3 44/69/3
f 44/69/3 46/172/3 52/70/3
f 46/172/3 48/174/3 52/70/3
f 48/174/3 50/176/3 52/70/3
f 28/156/3 32/160/3 36/68/3
f 52/70/3 28/156/3 36/68/3
f 85/104/2 54/178/2 55/179/2
f 55/179/2 56/180/2 57/181/2
f 57/181/2 58/182/2 59/183/2
f 59/183/2 60/184/2 61/105/2
f 61/105/2 62/185/2 63/186/2
f 63/186/2 64/187/2 65/188/2
f 65/188/2 66/189/2 67/190/2
f 67/190/2 68/191/2 69/106/2
f 69/106/2 70/192/2 71/193/2
f 71/193/2 72/194/2 73/195/2
f 73/195/2 74/196/2 75/197/2
f 75/197/2 76/198/2 77/199/2
f 77/199/2 78/200/2 79/201/2
f 79/201/2 80/202/2 81/203/2
f 81/203/2 82/204/2 83/205/2
f 83/205/2 84/206/2 85/104/2
f 85/104/2 55/179/2 57/181/2
f 57/181/2 59/183/2 85/104/2
f 59/183/2 61/105/2 85/104/2
f 61/105/2 63/186/2 65/188/2
f 65/188/2 67/190/2 61/105/2
f 67/190/2 69/106/2 61/105/2
f 69/106/2 71/193/2 73/195/2
f 73/195/2 75/197/2 77/199/2
f 77/199/2 79/201/2 81/203/2
f 81/203/2 83/205/2 85/104/2
f 69/106/2 73/195/2 77/199/2
f 77/199/2 81/203/2 69/106/2
f 81/203/2 85/104/2 69/106/2
f 118/142/1 87/207/1 88/208/1
f 88/208/1 89/209/1 90/210/1
f 90/210/1 91/211/1 92/212/1
f 92/212/1 93/213/1 94/214/1
f 94/214/1 95/215/1 96/216/1
f 96/216/1 97/217/1 98/218/1
f 98/218/1 99/219/1 100/220/1
f 100/220/1 101/221/1 102/222/1
f 102/222/1 103/223/1 104/224/1
f 104/224/1 105/225/1 106/140/1
f 106/140/1 107/226/1 108/227/1
f 108/227/1 109/228/1 110/141/1
f 110/141/1 111/229/1 112/194/1
f 112/194/1 113/230/1 114/231/1
f 114/231/1 115/232/1 116/233/1
f 116/233/1 117/234/1 118/142/1
f 118/142/1 88/208/1 90/210/1
f 90/210/1 92/212/1 94/214/1
f 94/214/1 96/216/1 98/218/1
f 98/218/1 100/220/1 102/222/1
f 102/222/1 104/224/1 106/140/1
f 106/140/1 108/227/1 110/141/1
f 110/141/1 112/194/1 114/231/1
f 114/231/1 116/233/1 110/141/1
f 116/233/1 118/142/1 110/141/1
f 118/142/1 90/210/1 102/222/1
f 90/210/1 94/214/1 102/222/1
f 94/214/1 98/218/1 102/222/1
f 102/222/1 106/140/1 118/142/1
