# Blender 4.0.1
# www.blender.org
mtllib Pointer.mtl
o Pointer
v -0.275545 -0.275545 0.275545
v -0.275545 0.275545 0.275545
v -0.275545 -0.275545 -0.275545
v -0.275545 0.275545 -0.275545
v 0.275545 -0.275545 0.275545
v 0.275545 0.275545 0.275545
v 0.275545 -0.275545 -0.275545
v 0.275545 0.275545 -0.275545
v -0.065486 0.065486 -3.076575
v -0.065486 -0.065486 -3.076575
v 0.065486 -0.065486 -3.076575
v 0.065486 0.065486 -3.076575
v 1.239977 0.048932 -0.048932
v 1.239977 -0.048932 -0.048932
v 1.239977 -0.048932 0.048932
v 1.239977 0.048932 0.048932
v -0.065486 0.065486 -3.275729
v -0.065486 -0.065486 -3.275729
v 0.065486 -0.065486 -3.275729
v 0.065486 0.065486 -3.275729
v 0.096049 -0.096049 -3.127469
v 0.096049 -0.096049 -3.224835
v 0.096049 0.096049 -3.224835
v 0.096049 0.096049 -3.127470
v -0.096049 -0.096049 -3.127469
v -0.096049 -0.096049 -3.224835
v -0.096049 0.096049 -3.224835
v -0.096049 0.096049 -3.127470
vn -1.0000 -0.0000 -0.0000
vn 0.9972 -0.0000 -0.0748
vn 0.2287 -0.0000 -0.9735
vn -0.0000 -0.0000 1.0000
vn -0.0000 -1.0000 -0.0000
vn -0.0000 1.0000 -0.0000
vn 0.8573 -0.0000 -0.5148
vn -0.0000 -0.9972 -0.0748
vn -0.0000 0.9972 -0.0748
vn -0.9972 -0.0000 -0.0748
vn 1.0000 -0.0000 -0.0000
vn 0.2287 -0.0000 0.9735
vn 0.2287 -0.9735 -0.0000
vn 0.2287 0.9735 -0.0000
vn -0.0000 -0.0000 -1.0000
vn -0.0000 -0.8573 -0.5148
vn -0.0000 0.8573 -0.5148
vn -0.8573 -0.0000 -0.5148
vn -0.8573 -0.0000 0.5148
vn -0.0000 0.8573 0.5148
vn -0.0000 -0.8573 0.5148
vn 0.8573 -0.0000 0.5148
vt 0.375000 0.000000
vt 0.625000 0.000000
vt 0.625000 0.250000
vt 0.375000 0.250000
vt 0.625000 0.500000
vt 0.375000 0.500000
vt 0.375000 0.750000
vt 0.625000 0.750000
vt 0.625000 1.000000
vt 0.375000 1.000000
vt 0.125000 0.500000
vt 0.125000 0.750000
vt 0.875000 0.500000
vt 0.875000 0.750000
s 0
f 1/1/1 2/2/1 4/3/1 3/4/1
f 8/5/2 7/6/2 11/6/2 12/5/2
f 7/6/3 8/5/3 13/5/3 14/6/3
f 5/7/4 6/8/4 2/9/4 1/10/4
f 3/11/5 7/6/5 5/7/5 1/12/5
f 8/5/6 4/13/6 2/14/6 6/8/6
f 23/5/7 22/6/7 19/6/7 20/5/7
f 7/6/8 3/11/8 10/11/8 11/6/8
f 4/13/9 8/5/9 12/5/9 9/13/9
f 3/4/10 4/3/10 9/3/10 10/4/10
f 14/6/11 13/5/11 16/8/11 15/7/11
f 6/8/12 5/7/12 15/7/12 16/8/12
f 5/7/13 7/6/13 14/6/13 15/7/13
f 8/5/14 6/8/14 16/8/14 13/5/14
f 18/4/15 17/3/15 20/5/15 19/6/15
f 22/6/16 26/11/16 18/11/16 19/6/16
f 27/13/17 23/5/17 20/5/17 17/13/17
f 26/4/18 27/3/18 17/3/18 18/4/18
f 10/4/19 9/3/19 28/3/19 25/4/19
f 25/4/1 28/3/1 27/3/1 26/4/1
f 9/13/20 12/5/20 24/5/20 28/13/20
f 28/13/6 24/5/6 23/5/6 27/13/6
f 11/6/21 10/11/21 25/11/21 21/6/21
f 21/6/5 25/11/5 26/11/5 22/6/5
f 12/5/22 11/6/22 21/6/22 24/5/22
f 24/5/11 21/6/11 22/6/11 23/5/11
